<mxfile host="app.diagrams.net" modified="2024-06-30T04:42:49.338Z" agent="Mozilla/5.0 (Windows NT 10.0; Win64; x64) AppleWebKit/537.36 (KHTML, like Gecko) Chrome/126.0.0.0 Safari/537.36" etag="0hfxkntr89MjLIf6XdFE" version="24.6.4" type="device">
  <diagram name="Page-1" id="1y9HwyUinF0IFDm6N70a">
    <mxGraphModel dx="1433" dy="1680" grid="1" gridSize="10" guides="1" tooltips="1" connect="1" arrows="1" fold="1" page="1" pageScale="1" pageWidth="850" pageHeight="1100" math="0" shadow="0">
      <root>
        <mxCell id="0" />
        <mxCell id="1" parent="0" />
        <mxCell id="3C2e0yeYLJYIYAQf3LMI-2" value="" style="image;aspect=fixed;perimeter=ellipsePerimeter;html=1;align=center;shadow=0;dashed=0;spacingTop=3;image=img/lib/active_directory/user.svg;" parent="1" vertex="1">
          <mxGeometry x="180" y="228" width="40.7" height="110" as="geometry" />
        </mxCell>
        <mxCell id="kkgw0QgdX8Bn1frEBsBn-6" style="edgeStyle=orthogonalEdgeStyle;rounded=0;orthogonalLoop=1;jettySize=auto;html=1;exitX=0;exitY=0;exitDx=80;exitDy=65;exitPerimeter=0;strokeColor=#FF66FF;" edge="1" parent="1" source="kkgw0QgdX8Bn1frEBsBn-2" target="kkgw0QgdX8Bn1frEBsBn-5">
          <mxGeometry relative="1" as="geometry" />
        </mxCell>
        <mxCell id="kkgw0QgdX8Bn1frEBsBn-7" value="1" style="edgeLabel;html=1;align=center;verticalAlign=middle;resizable=0;points=[];" vertex="1" connectable="0" parent="kkgw0QgdX8Bn1frEBsBn-6">
          <mxGeometry x="0.0445" y="1" relative="1" as="geometry">
            <mxPoint as="offset" />
          </mxGeometry>
        </mxCell>
        <mxCell id="kkgw0QgdX8Bn1frEBsBn-70" style="edgeStyle=orthogonalEdgeStyle;rounded=0;orthogonalLoop=1;jettySize=auto;html=1;exitX=0;exitY=1;exitDx=0;exitDy=0;exitPerimeter=0;entryX=0;entryY=0.5;entryDx=0;entryDy=0;strokeColor=#994C00;" edge="1" parent="1" source="kkgw0QgdX8Bn1frEBsBn-2" target="3C2e0yeYLJYIYAQf3LMI-2">
          <mxGeometry relative="1" as="geometry" />
        </mxCell>
        <mxCell id="kkgw0QgdX8Bn1frEBsBn-71" value="6" style="edgeLabel;html=1;align=center;verticalAlign=middle;resizable=0;points=[];" vertex="1" connectable="0" parent="kkgw0QgdX8Bn1frEBsBn-70">
          <mxGeometry x="-0.6607" relative="1" as="geometry">
            <mxPoint as="offset" />
          </mxGeometry>
        </mxCell>
        <mxCell id="kkgw0QgdX8Bn1frEBsBn-2" value="Noun Contract" style="shape=note;whiteSpace=wrap;html=1;backgroundOutline=1;darkOpacity=0.05;" vertex="1" parent="1">
          <mxGeometry x="150" width="80" height="100" as="geometry" />
        </mxCell>
        <mxCell id="kkgw0QgdX8Bn1frEBsBn-3" style="edgeStyle=orthogonalEdgeStyle;rounded=0;orthogonalLoop=1;jettySize=auto;html=1;exitX=0.5;exitY=0;exitDx=0;exitDy=0;entryX=0.5;entryY=1;entryDx=0;entryDy=0;entryPerimeter=0;strokeColor=#FF66FF;" edge="1" parent="1" source="3C2e0yeYLJYIYAQf3LMI-2" target="kkgw0QgdX8Bn1frEBsBn-2">
          <mxGeometry relative="1" as="geometry" />
        </mxCell>
        <mxCell id="kkgw0QgdX8Bn1frEBsBn-4" value="1" style="edgeLabel;html=1;align=center;verticalAlign=middle;resizable=0;points=[];" vertex="1" connectable="0" parent="kkgw0QgdX8Bn1frEBsBn-3">
          <mxGeometry x="-0.0791" y="-2" relative="1" as="geometry">
            <mxPoint x="-2" as="offset" />
          </mxGeometry>
        </mxCell>
        <mxCell id="kkgw0QgdX8Bn1frEBsBn-16" style="edgeStyle=orthogonalEdgeStyle;rounded=0;orthogonalLoop=1;jettySize=auto;html=1;exitX=0;exitY=1;exitDx=0;exitDy=0;exitPerimeter=0;entryX=1;entryY=0;entryDx=0;entryDy=0;strokeColor=#00FF00;" edge="1" parent="1" source="kkgw0QgdX8Bn1frEBsBn-5" target="3C2e0yeYLJYIYAQf3LMI-2">
          <mxGeometry relative="1" as="geometry" />
        </mxCell>
        <mxCell id="kkgw0QgdX8Bn1frEBsBn-17" value="3" style="edgeLabel;html=1;align=center;verticalAlign=middle;resizable=0;points=[];" vertex="1" connectable="0" parent="kkgw0QgdX8Bn1frEBsBn-16">
          <mxGeometry x="-0.245" relative="1" as="geometry">
            <mxPoint as="offset" />
          </mxGeometry>
        </mxCell>
        <mxCell id="kkgw0QgdX8Bn1frEBsBn-72" style="edgeStyle=orthogonalEdgeStyle;rounded=0;orthogonalLoop=1;jettySize=auto;html=1;exitX=0;exitY=0;exitDx=65;exitDy=15;exitPerimeter=0;entryX=0;entryY=0.5;entryDx=0;entryDy=0;strokeColor=#00FF00;" edge="1" parent="1" source="kkgw0QgdX8Bn1frEBsBn-5" target="kkgw0QgdX8Bn1frEBsBn-21">
          <mxGeometry relative="1" as="geometry" />
        </mxCell>
        <mxCell id="kkgw0QgdX8Bn1frEBsBn-73" value="3" style="edgeLabel;html=1;align=center;verticalAlign=middle;resizable=0;points=[];" vertex="1" connectable="0" parent="kkgw0QgdX8Bn1frEBsBn-72">
          <mxGeometry x="-0.1573" relative="1" as="geometry">
            <mxPoint as="offset" />
          </mxGeometry>
        </mxCell>
        <mxCell id="kkgw0QgdX8Bn1frEBsBn-78" style="edgeStyle=orthogonalEdgeStyle;rounded=0;orthogonalLoop=1;jettySize=auto;html=1;exitX=0.5;exitY=0;exitDx=0;exitDy=0;exitPerimeter=0;entryX=0.5;entryY=1;entryDx=0;entryDy=0;strokeColor=#994C00;" edge="1" parent="1" source="kkgw0QgdX8Bn1frEBsBn-5" target="kkgw0QgdX8Bn1frEBsBn-77">
          <mxGeometry relative="1" as="geometry" />
        </mxCell>
        <mxCell id="kkgw0QgdX8Bn1frEBsBn-79" value="6" style="edgeLabel;html=1;align=center;verticalAlign=middle;resizable=0;points=[];" vertex="1" connectable="0" parent="kkgw0QgdX8Bn1frEBsBn-78">
          <mxGeometry x="-0.0467" y="-1" relative="1" as="geometry">
            <mxPoint as="offset" />
          </mxGeometry>
        </mxCell>
        <mxCell id="kkgw0QgdX8Bn1frEBsBn-5" value="tNoun Contract" style="shape=note;whiteSpace=wrap;html=1;backgroundOutline=1;darkOpacity=0.05;" vertex="1" parent="1">
          <mxGeometry x="310" y="20" width="80" height="100" as="geometry" />
        </mxCell>
        <mxCell id="kkgw0QgdX8Bn1frEBsBn-33" style="edgeStyle=orthogonalEdgeStyle;rounded=0;orthogonalLoop=1;jettySize=auto;html=1;exitX=0;exitY=1;exitDx=0;exitDy=0;exitPerimeter=0;strokeColor=#00FF00;" edge="1" parent="1" source="kkgw0QgdX8Bn1frEBsBn-8" target="3C2e0yeYLJYIYAQf3LMI-2">
          <mxGeometry relative="1" as="geometry" />
        </mxCell>
        <mxCell id="kkgw0QgdX8Bn1frEBsBn-34" value="3" style="edgeLabel;html=1;align=center;verticalAlign=middle;resizable=0;points=[];" vertex="1" connectable="0" parent="kkgw0QgdX8Bn1frEBsBn-33">
          <mxGeometry x="0.3597" y="1" relative="1" as="geometry">
            <mxPoint as="offset" />
          </mxGeometry>
        </mxCell>
        <mxCell id="kkgw0QgdX8Bn1frEBsBn-8" value="fNoun Contract" style="shape=note;whiteSpace=wrap;html=1;backgroundOutline=1;darkOpacity=0.05;" vertex="1" parent="1">
          <mxGeometry x="432" y="188" width="80" height="100" as="geometry" />
        </mxCell>
        <mxCell id="kkgw0QgdX8Bn1frEBsBn-13" style="edgeStyle=orthogonalEdgeStyle;rounded=0;orthogonalLoop=1;jettySize=auto;html=1;exitX=0.5;exitY=0;exitDx=0;exitDy=0;exitPerimeter=0;strokeColor=#B266FF;" edge="1" parent="1" source="kkgw0QgdX8Bn1frEBsBn-11" target="kkgw0QgdX8Bn1frEBsBn-5">
          <mxGeometry relative="1" as="geometry" />
        </mxCell>
        <mxCell id="kkgw0QgdX8Bn1frEBsBn-15" value="2" style="edgeLabel;html=1;align=center;verticalAlign=middle;resizable=0;points=[];" vertex="1" connectable="0" parent="kkgw0QgdX8Bn1frEBsBn-13">
          <mxGeometry x="0.0514" relative="1" as="geometry">
            <mxPoint as="offset" />
          </mxGeometry>
        </mxCell>
        <mxCell id="kkgw0QgdX8Bn1frEBsBn-11" value="EAS&amp;nbsp;&lt;br&gt;Schema on Base" style="shape=card;whiteSpace=wrap;html=1;" vertex="1" parent="1">
          <mxGeometry x="280" y="380" width="80" height="100" as="geometry" />
        </mxCell>
        <mxCell id="kkgw0QgdX8Bn1frEBsBn-12" style="edgeStyle=orthogonalEdgeStyle;rounded=0;orthogonalLoop=1;jettySize=auto;html=1;exitX=1;exitY=0.75;exitDx=0;exitDy=0;entryX=0;entryY=0;entryDx=0;entryDy=65;entryPerimeter=0;strokeColor=#B266FF;" edge="1" parent="1" source="3C2e0yeYLJYIYAQf3LMI-2" target="kkgw0QgdX8Bn1frEBsBn-11">
          <mxGeometry relative="1" as="geometry" />
        </mxCell>
        <mxCell id="kkgw0QgdX8Bn1frEBsBn-14" value="2" style="edgeLabel;html=1;align=center;verticalAlign=middle;resizable=0;points=[];" vertex="1" connectable="0" parent="kkgw0QgdX8Bn1frEBsBn-12">
          <mxGeometry x="0.0079" y="1" relative="1" as="geometry">
            <mxPoint as="offset" />
          </mxGeometry>
        </mxCell>
        <mxCell id="kkgw0QgdX8Bn1frEBsBn-18" style="edgeStyle=orthogonalEdgeStyle;rounded=0;orthogonalLoop=1;jettySize=auto;html=1;exitX=1;exitY=1;exitDx=0;exitDy=0;exitPerimeter=0;entryX=0;entryY=0.5;entryDx=0;entryDy=0;entryPerimeter=0;strokeColor=#00FF00;" edge="1" parent="1" source="kkgw0QgdX8Bn1frEBsBn-5" target="kkgw0QgdX8Bn1frEBsBn-8">
          <mxGeometry relative="1" as="geometry" />
        </mxCell>
        <mxCell id="kkgw0QgdX8Bn1frEBsBn-19" value="3" style="edgeLabel;html=1;align=center;verticalAlign=middle;resizable=0;points=[];" vertex="1" connectable="0" parent="kkgw0QgdX8Bn1frEBsBn-18">
          <mxGeometry x="-0.2658" relative="1" as="geometry">
            <mxPoint as="offset" />
          </mxGeometry>
        </mxCell>
        <mxCell id="kkgw0QgdX8Bn1frEBsBn-20" value="&lt;div&gt;&lt;br&gt;&lt;/div&gt;&lt;div&gt;&lt;br&gt;&lt;/div&gt;" style="image;aspect=fixed;perimeter=ellipsePerimeter;html=1;align=center;shadow=0;dashed=0;spacingTop=3;image=img/lib/active_directory/users.svg;" vertex="1" parent="1">
          <mxGeometry x="610" y="238" width="52.8" height="80" as="geometry" />
        </mxCell>
        <mxCell id="kkgw0QgdX8Bn1frEBsBn-21" value="" style="image;aspect=fixed;perimeter=ellipsePerimeter;html=1;align=center;shadow=0;dashed=0;spacingTop=3;image=img/lib/active_directory/secure.svg;" vertex="1" parent="1">
          <mxGeometry x="480" y="-10" width="32" height="50" as="geometry" />
        </mxCell>
        <mxCell id="kkgw0QgdX8Bn1frEBsBn-24" style="edgeStyle=orthogonalEdgeStyle;rounded=0;orthogonalLoop=1;jettySize=auto;html=1;exitX=0;exitY=0;exitDx=0;exitDy=0;exitPerimeter=0;entryX=0;entryY=0;entryDx=80;entryDy=30;entryPerimeter=0;strokeColor=#00FF00;" edge="1" parent="1" source="kkgw0QgdX8Bn1frEBsBn-5" target="kkgw0QgdX8Bn1frEBsBn-2">
          <mxGeometry relative="1" as="geometry" />
        </mxCell>
        <mxCell id="kkgw0QgdX8Bn1frEBsBn-25" value="3" style="edgeLabel;html=1;align=center;verticalAlign=middle;resizable=0;points=[];" vertex="1" connectable="0" parent="kkgw0QgdX8Bn1frEBsBn-24">
          <mxGeometry x="0.1893" y="-1" relative="1" as="geometry">
            <mxPoint as="offset" />
          </mxGeometry>
        </mxCell>
        <mxCell id="kkgw0QgdX8Bn1frEBsBn-26" style="edgeStyle=orthogonalEdgeStyle;rounded=0;orthogonalLoop=1;jettySize=auto;html=1;exitX=0;exitY=1;exitDx=0;exitDy=0;entryX=0;entryY=0;entryDx=80;entryDy=65;entryPerimeter=0;strokeColor=#007FFF;" edge="1" parent="1" source="kkgw0QgdX8Bn1frEBsBn-20" target="kkgw0QgdX8Bn1frEBsBn-8">
          <mxGeometry relative="1" as="geometry" />
        </mxCell>
        <mxCell id="kkgw0QgdX8Bn1frEBsBn-27" style="edgeStyle=orthogonalEdgeStyle;rounded=0;orthogonalLoop=1;jettySize=auto;html=1;exitX=0.5;exitY=1;exitDx=0;exitDy=0;entryX=0;entryY=0;entryDx=80;entryDy=65;entryPerimeter=0;strokeColor=#007FFF;" edge="1" parent="1" source="kkgw0QgdX8Bn1frEBsBn-20" target="kkgw0QgdX8Bn1frEBsBn-8">
          <mxGeometry relative="1" as="geometry" />
        </mxCell>
        <mxCell id="kkgw0QgdX8Bn1frEBsBn-28" style="edgeStyle=orthogonalEdgeStyle;rounded=0;orthogonalLoop=1;jettySize=auto;html=1;exitX=0.5;exitY=0;exitDx=0;exitDy=0;entryX=0;entryY=0;entryDx=80;entryDy=65;entryPerimeter=0;strokeColor=#007FFF;" edge="1" parent="1" source="kkgw0QgdX8Bn1frEBsBn-20" target="kkgw0QgdX8Bn1frEBsBn-8">
          <mxGeometry relative="1" as="geometry" />
        </mxCell>
        <mxCell id="kkgw0QgdX8Bn1frEBsBn-29" style="edgeStyle=orthogonalEdgeStyle;rounded=0;orthogonalLoop=1;jettySize=auto;html=1;exitX=0;exitY=0.5;exitDx=0;exitDy=0;entryX=0;entryY=0;entryDx=80;entryDy=65;entryPerimeter=0;strokeColor=#007FFF;" edge="1" parent="1" source="kkgw0QgdX8Bn1frEBsBn-20" target="kkgw0QgdX8Bn1frEBsBn-8">
          <mxGeometry relative="1" as="geometry" />
        </mxCell>
        <mxCell id="kkgw0QgdX8Bn1frEBsBn-30" value="4" style="edgeLabel;html=1;align=center;verticalAlign=middle;resizable=0;points=[];" vertex="1" connectable="0" parent="kkgw0QgdX8Bn1frEBsBn-29">
          <mxGeometry x="0.4862" y="-3" relative="1" as="geometry">
            <mxPoint as="offset" />
          </mxGeometry>
        </mxCell>
        <mxCell id="kkgw0QgdX8Bn1frEBsBn-31" style="edgeStyle=orthogonalEdgeStyle;rounded=0;orthogonalLoop=1;jettySize=auto;html=1;exitX=1;exitY=1;exitDx=0;exitDy=0;entryX=0.5;entryY=1;entryDx=0;entryDy=0;entryPerimeter=0;strokeColor=#FF6666;" edge="1" parent="1" source="3C2e0yeYLJYIYAQf3LMI-2" target="kkgw0QgdX8Bn1frEBsBn-8">
          <mxGeometry relative="1" as="geometry" />
        </mxCell>
        <mxCell id="kkgw0QgdX8Bn1frEBsBn-32" value="5" style="edgeLabel;html=1;align=center;verticalAlign=middle;resizable=0;points=[];" vertex="1" connectable="0" parent="kkgw0QgdX8Bn1frEBsBn-31">
          <mxGeometry x="0.0799" y="-2" relative="1" as="geometry">
            <mxPoint as="offset" />
          </mxGeometry>
        </mxCell>
        <mxCell id="kkgw0QgdX8Bn1frEBsBn-35" value="" style="shape=mxgraph.cisco.misc.token;html=1;pointerEvents=1;dashed=0;fillColor=#036897;strokeColor=#ffffff;strokeWidth=2;verticalLabelPosition=bottom;verticalAlign=top;align=center;outlineConnect=0;" vertex="1" parent="1">
          <mxGeometry x="50" y="197" width="59" height="61" as="geometry" />
        </mxCell>
        <mxCell id="kkgw0QgdX8Bn1frEBsBn-36" value="" style="shape=mxgraph.cisco.misc.token;html=1;pointerEvents=1;dashed=0;fillColor=#036897;strokeColor=#ffffff;strokeWidth=2;verticalLabelPosition=bottom;verticalAlign=top;align=center;outlineConnect=0;" vertex="1" parent="1">
          <mxGeometry x="50" y="330" width="59" height="20" as="geometry" />
        </mxCell>
        <mxCell id="kkgw0QgdX8Bn1frEBsBn-37" style="edgeStyle=orthogonalEdgeStyle;rounded=0;orthogonalLoop=1;jettySize=auto;html=1;exitX=0;exitY=0;exitDx=80;exitDy=30;exitPerimeter=0;entryX=-0.019;entryY=0.404;entryDx=0;entryDy=0;entryPerimeter=0;strokeColor=#007FFF;" edge="1" parent="1" source="kkgw0QgdX8Bn1frEBsBn-8" target="kkgw0QgdX8Bn1frEBsBn-20">
          <mxGeometry relative="1" as="geometry" />
        </mxCell>
        <mxCell id="kkgw0QgdX8Bn1frEBsBn-38" value="4" style="edgeLabel;html=1;align=center;verticalAlign=middle;resizable=0;points=[];" vertex="1" connectable="0" parent="kkgw0QgdX8Bn1frEBsBn-37">
          <mxGeometry x="-0.5735" y="1" relative="1" as="geometry">
            <mxPoint as="offset" />
          </mxGeometry>
        </mxCell>
        <mxCell id="kkgw0QgdX8Bn1frEBsBn-47" value="" style="image;aspect=fixed;html=1;points=[];align=center;fontSize=12;image=img/lib/azure2/blockchain/Azure_Token_Service.svg;" vertex="1" parent="1">
          <mxGeometry x="710" y="238" width="59" height="68" as="geometry" />
        </mxCell>
        <mxCell id="kkgw0QgdX8Bn1frEBsBn-49" style="edgeStyle=orthogonalEdgeStyle;rounded=0;orthogonalLoop=1;jettySize=auto;html=1;exitX=1;exitY=0.5;exitDx=0;exitDy=0;entryX=0.169;entryY=0.588;entryDx=0;entryDy=0;entryPerimeter=0;strokeColor=#007FFF;" edge="1" parent="1" source="kkgw0QgdX8Bn1frEBsBn-20" target="kkgw0QgdX8Bn1frEBsBn-47">
          <mxGeometry relative="1" as="geometry" />
        </mxCell>
        <mxCell id="kkgw0QgdX8Bn1frEBsBn-50" style="edgeStyle=orthogonalEdgeStyle;rounded=0;orthogonalLoop=1;jettySize=auto;html=1;exitX=1;exitY=0.75;exitDx=0;exitDy=0;entryX=0.458;entryY=0.995;entryDx=0;entryDy=0;entryPerimeter=0;strokeColor=#007FFF;" edge="1" parent="1" source="kkgw0QgdX8Bn1frEBsBn-20" target="kkgw0QgdX8Bn1frEBsBn-47">
          <mxGeometry relative="1" as="geometry" />
        </mxCell>
        <mxCell id="kkgw0QgdX8Bn1frEBsBn-51" style="edgeStyle=orthogonalEdgeStyle;rounded=0;orthogonalLoop=1;jettySize=auto;html=1;exitX=1;exitY=0.25;exitDx=0;exitDy=0;entryX=0.006;entryY=0.172;entryDx=0;entryDy=0;entryPerimeter=0;strokeColor=#007FFF;" edge="1" parent="1" source="kkgw0QgdX8Bn1frEBsBn-20" target="kkgw0QgdX8Bn1frEBsBn-47">
          <mxGeometry relative="1" as="geometry" />
        </mxCell>
        <mxCell id="kkgw0QgdX8Bn1frEBsBn-52" style="edgeStyle=orthogonalEdgeStyle;rounded=0;orthogonalLoop=1;jettySize=auto;html=1;exitX=0;exitY=0;exitDx=0;exitDy=0;entryX=1;entryY=0.5;entryDx=0;entryDy=0;entryPerimeter=0;strokeColor=#9933FF;" edge="1" parent="1" source="3C2e0yeYLJYIYAQf3LMI-2" target="kkgw0QgdX8Bn1frEBsBn-35">
          <mxGeometry relative="1" as="geometry" />
        </mxCell>
        <mxCell id="kkgw0QgdX8Bn1frEBsBn-53" style="edgeStyle=orthogonalEdgeStyle;rounded=0;orthogonalLoop=1;jettySize=auto;html=1;exitX=0;exitY=1;exitDx=0;exitDy=0;entryX=1;entryY=0.5;entryDx=0;entryDy=0;entryPerimeter=0;strokeColor=#00FF00;" edge="1" parent="1" source="3C2e0yeYLJYIYAQf3LMI-2" target="kkgw0QgdX8Bn1frEBsBn-36">
          <mxGeometry relative="1" as="geometry" />
        </mxCell>
        <mxCell id="kkgw0QgdX8Bn1frEBsBn-55" style="edgeStyle=orthogonalEdgeStyle;rounded=0;orthogonalLoop=1;jettySize=auto;html=1;exitX=0;exitY=0;exitDx=80;exitDy=65;exitPerimeter=0;entryX=-0.004;entryY=0.277;entryDx=0;entryDy=0;entryPerimeter=0;strokeColor=#FF6666;" edge="1" parent="1" source="kkgw0QgdX8Bn1frEBsBn-5" target="kkgw0QgdX8Bn1frEBsBn-8">
          <mxGeometry relative="1" as="geometry">
            <Array as="points">
              <mxPoint x="420" y="95" />
              <mxPoint x="420" y="218" />
            </Array>
          </mxGeometry>
        </mxCell>
        <mxCell id="kkgw0QgdX8Bn1frEBsBn-57" value="5" style="edgeLabel;html=1;align=center;verticalAlign=middle;resizable=0;points=[];" vertex="1" connectable="0" parent="kkgw0QgdX8Bn1frEBsBn-55">
          <mxGeometry x="-0.0853" relative="1" as="geometry">
            <mxPoint as="offset" />
          </mxGeometry>
        </mxCell>
        <mxCell id="kkgw0QgdX8Bn1frEBsBn-58" style="edgeStyle=orthogonalEdgeStyle;rounded=0;orthogonalLoop=1;jettySize=auto;html=1;exitX=0;exitY=0;exitDx=65;exitDy=15;exitPerimeter=0;entryX=0.605;entryY=0.005;entryDx=0;entryDy=0;entryPerimeter=0;strokeColor=#FF6666;" edge="1" parent="1" source="kkgw0QgdX8Bn1frEBsBn-8" target="kkgw0QgdX8Bn1frEBsBn-47">
          <mxGeometry relative="1" as="geometry" />
        </mxCell>
        <mxCell id="kkgw0QgdX8Bn1frEBsBn-59" value="5" style="edgeLabel;html=1;align=center;verticalAlign=middle;resizable=0;points=[];" vertex="1" connectable="0" parent="kkgw0QgdX8Bn1frEBsBn-58">
          <mxGeometry x="0.1208" y="-2" relative="1" as="geometry">
            <mxPoint as="offset" />
          </mxGeometry>
        </mxCell>
        <mxCell id="kkgw0QgdX8Bn1frEBsBn-60" style="edgeStyle=orthogonalEdgeStyle;rounded=0;orthogonalLoop=1;jettySize=auto;html=1;exitX=0;exitY=1;exitDx=0;exitDy=0;exitPerimeter=0;entryX=0.5;entryY=0;entryDx=0;entryDy=0;entryPerimeter=0;strokeColor=#FF6666;" edge="1" parent="1" source="kkgw0QgdX8Bn1frEBsBn-5" target="kkgw0QgdX8Bn1frEBsBn-35">
          <mxGeometry relative="1" as="geometry" />
        </mxCell>
        <mxCell id="kkgw0QgdX8Bn1frEBsBn-61" value="5" style="edgeLabel;html=1;align=center;verticalAlign=middle;resizable=0;points=[];" vertex="1" connectable="0" parent="kkgw0QgdX8Bn1frEBsBn-60">
          <mxGeometry x="0.2694" y="-2" relative="1" as="geometry">
            <mxPoint as="offset" />
          </mxGeometry>
        </mxCell>
        <mxCell id="kkgw0QgdX8Bn1frEBsBn-62" style="edgeStyle=orthogonalEdgeStyle;rounded=0;orthogonalLoop=1;jettySize=auto;html=1;exitX=0;exitY=1;exitDx=0;exitDy=0;exitPerimeter=0;entryX=0.5;entryY=1;entryDx=0;entryDy=0;entryPerimeter=0;strokeColor=#FF6666;" edge="1" parent="1" source="kkgw0QgdX8Bn1frEBsBn-8" target="kkgw0QgdX8Bn1frEBsBn-36">
          <mxGeometry relative="1" as="geometry" />
        </mxCell>
        <mxCell id="kkgw0QgdX8Bn1frEBsBn-63" value="5" style="edgeLabel;html=1;align=center;verticalAlign=middle;resizable=0;points=[];" vertex="1" connectable="0" parent="kkgw0QgdX8Bn1frEBsBn-62">
          <mxGeometry x="-0.0041" y="-1" relative="1" as="geometry">
            <mxPoint as="offset" />
          </mxGeometry>
        </mxCell>
        <mxCell id="kkgw0QgdX8Bn1frEBsBn-64" style="edgeStyle=orthogonalEdgeStyle;rounded=0;orthogonalLoop=1;jettySize=auto;html=1;exitX=0.75;exitY=1;exitDx=0;exitDy=0;entryX=0;entryY=0;entryDx=15;entryDy=15;entryPerimeter=0;strokeColor=#FF6666;" edge="1" parent="1" source="3C2e0yeYLJYIYAQf3LMI-2" target="kkgw0QgdX8Bn1frEBsBn-11">
          <mxGeometry relative="1" as="geometry" />
        </mxCell>
        <mxCell id="kkgw0QgdX8Bn1frEBsBn-65" value="5" style="edgeLabel;html=1;align=center;verticalAlign=middle;resizable=0;points=[];" vertex="1" connectable="0" parent="kkgw0QgdX8Bn1frEBsBn-64">
          <mxGeometry x="-0.1965" y="-1" relative="1" as="geometry">
            <mxPoint as="offset" />
          </mxGeometry>
        </mxCell>
        <mxCell id="kkgw0QgdX8Bn1frEBsBn-66" style="edgeStyle=orthogonalEdgeStyle;rounded=0;orthogonalLoop=1;jettySize=auto;html=1;exitX=0;exitY=0;exitDx=55;exitDy=0;exitPerimeter=0;entryX=-0.013;entryY=0.81;entryDx=0;entryDy=0;entryPerimeter=0;strokeColor=#FF6666;" edge="1" parent="1" source="kkgw0QgdX8Bn1frEBsBn-11" target="kkgw0QgdX8Bn1frEBsBn-5">
          <mxGeometry relative="1" as="geometry" />
        </mxCell>
        <mxCell id="kkgw0QgdX8Bn1frEBsBn-67" value="5" style="edgeLabel;html=1;align=center;verticalAlign=middle;resizable=0;points=[];" vertex="1" connectable="0" parent="kkgw0QgdX8Bn1frEBsBn-66">
          <mxGeometry x="0.3278" y="2" relative="1" as="geometry">
            <mxPoint as="offset" />
          </mxGeometry>
        </mxCell>
        <mxCell id="kkgw0QgdX8Bn1frEBsBn-68" style="edgeStyle=orthogonalEdgeStyle;rounded=0;orthogonalLoop=1;jettySize=auto;html=1;exitX=0;exitY=0;exitDx=25;exitDy=0;exitPerimeter=0;entryX=0;entryY=0;entryDx=25;entryDy=0;entryPerimeter=0;strokeColor=#994C00;" edge="1" parent="1" source="kkgw0QgdX8Bn1frEBsBn-5" target="kkgw0QgdX8Bn1frEBsBn-2">
          <mxGeometry relative="1" as="geometry" />
        </mxCell>
        <mxCell id="kkgw0QgdX8Bn1frEBsBn-69" value="6" style="edgeLabel;html=1;align=center;verticalAlign=middle;resizable=0;points=[];" vertex="1" connectable="0" parent="kkgw0QgdX8Bn1frEBsBn-68">
          <mxGeometry x="0.1782" y="-1" relative="1" as="geometry">
            <mxPoint as="offset" />
          </mxGeometry>
        </mxCell>
        <mxCell id="kkgw0QgdX8Bn1frEBsBn-74" style="edgeStyle=orthogonalEdgeStyle;rounded=0;orthogonalLoop=1;jettySize=auto;html=1;exitX=0;exitY=0;exitDx=80;exitDy=30;exitPerimeter=0;entryX=0.568;entryY=0.25;entryDx=0;entryDy=0;entryPerimeter=0;strokeColor=#994C00;" edge="1" parent="1" source="kkgw0QgdX8Bn1frEBsBn-5" target="kkgw0QgdX8Bn1frEBsBn-20">
          <mxGeometry relative="1" as="geometry" />
        </mxCell>
        <mxCell id="kkgw0QgdX8Bn1frEBsBn-75" value="6" style="edgeLabel;html=1;align=center;verticalAlign=middle;resizable=0;points=[];" vertex="1" connectable="0" parent="kkgw0QgdX8Bn1frEBsBn-74">
          <mxGeometry x="-0.1339" y="-1" relative="1" as="geometry">
            <mxPoint as="offset" />
          </mxGeometry>
        </mxCell>
        <mxCell id="kkgw0QgdX8Bn1frEBsBn-77" value="" style="image;aspect=fixed;perimeter=ellipsePerimeter;html=1;align=center;shadow=0;dashed=0;spacingTop=3;image=img/lib/active_directory/not_secure.svg;" vertex="1" parent="1">
          <mxGeometry x="370" y="-80" width="44" height="50" as="geometry" />
        </mxCell>
        <mxCell id="kkgw0QgdX8Bn1frEBsBn-80" value="Noun Owner" style="text;html=1;align=center;verticalAlign=middle;resizable=0;points=[];autosize=1;strokeColor=none;fillColor=none;" vertex="1" parent="1">
          <mxGeometry x="155.35" y="330" width="90" height="30" as="geometry" />
        </mxCell>
        <mxCell id="kkgw0QgdX8Bn1frEBsBn-81" value="Users" style="text;html=1;align=center;verticalAlign=middle;resizable=0;points=[];autosize=1;strokeColor=none;fillColor=none;" vertex="1" parent="1">
          <mxGeometry x="640" y="310" width="50" height="30" as="geometry" />
        </mxCell>
        <mxCell id="kkgw0QgdX8Bn1frEBsBn-85" value="fNoun" style="text;html=1;align=center;verticalAlign=middle;resizable=0;points=[];autosize=1;strokeColor=none;fillColor=none;" vertex="1" parent="1">
          <mxGeometry x="20" y="340" width="60" height="30" as="geometry" />
        </mxCell>
        <mxCell id="kkgw0QgdX8Bn1frEBsBn-86" value="tNoun" style="text;html=1;align=center;verticalAlign=middle;resizable=0;points=[];autosize=1;strokeColor=none;fillColor=none;" vertex="1" parent="1">
          <mxGeometry x="50" y="257" width="60" height="30" as="geometry" />
        </mxCell>
        <mxCell id="kkgw0QgdX8Bn1frEBsBn-87" value="fNouns" style="text;html=1;align=center;verticalAlign=middle;resizable=0;points=[];autosize=1;strokeColor=none;fillColor=none;" vertex="1" parent="1">
          <mxGeometry x="730" y="300" width="60" height="30" as="geometry" />
        </mxCell>
      </root>
    </mxGraphModel>
  </diagram>
</mxfile>
